<?xml version="1.0" encoding="iso-8859-1"?>
<!-- Generator: Adobe Illustrator 18.0.0, SVG Export Plug-In . SVG Version: 6.00 Build 0)  -->
<!DOCTYPE svg PUBLIC "-//W3C//DTD SVG 1.1//EN" "http://www.w3.org/Graphics/SVG/1.1/DTD/svg11.dtd">
<svg version="1.1" id="Capa_1" xmlns="http://www.w3.org/2000/svg" xmlns:xlink="http://www.w3.org/1999/xlink" x="0px" y="0px"
	 viewBox="0 0 307.996 307.996" style="enable-background:new 0 0 307.996 307.996;" xml:space="preserve">
<g>
	<path d="M232.411,167.171l-31.529-89.995c-2.045-5.838-7.724-8.873-13.633-8.873h-66.503c-5.909,0-11.587,3.035-13.633,8.873
		l-31.529,89.995c-2.3,6.565,0.561,14.016,6.89,16.904c1.822,0.831,3.712,1.218,5.564,1.218c5.507,0,10.661-3.438,12.585-8.929
		l15.596-44.515v9.194L96.375,208.48c-0.539,3.963,1.413,7.983,5.224,9.947c1.39,0.716,2.956,1.026,4.519,1.026l10.367,0v72.09
		c0,8.616,6.621,16.03,15.228,16.435c9.189,0.433,16.775-6.89,16.775-15.984v-67.032c0-3.043,2.467-5.509,5.509-5.509h0
		c3.043,0,5.509,2.467,5.509,5.509v66.58c0,8.616,6.622,16.03,15.228,16.435c9.189,0.433,16.775-6.89,16.775-15.984v-72.542
		l10.367,0c1.564,0,3.129-0.31,4.519-1.026c3.81-1.964,5.763-5.984,5.224-9.947l-19.843-67.436v-9.194l15.596,44.515
		c1.924,5.491,7.078,8.929,12.585,8.929c1.851,0,3.743-0.387,5.564-1.219C231.851,181.187,234.711,173.736,232.411,167.171z"/>
	<circle cx="154.207" cy="28.995" r="28.995"/>
</g>
<g>
</g>
<g>
</g>
<g>
</g>
<g>
</g>
<g>
</g>
<g>
</g>
<g>
</g>
<g>
</g>
<g>
</g>
<g>
</g>
<g>
</g>
<g>
</g>
<g>
</g>
<g>
</g>
<g>
</g>
</svg>
